HIERARCHY
ROOT Hips
{
  OFFSET 279.157 85.6768 304.565
  CHANNELS 6 Xposition Yposition Zposition Zrotation Xrotation Yrotation
  JOINT LeftUpLeg
  {
    OFFSET 8.64259 1.95398 -2.38835
    CHANNELS 3 Zrotation Xrotation Yrotation
    JOINT LeftLeg
    {
      OFFSET 43.7702 0 0
      CHANNELS 3 Zrotation Xrotation Yrotation
      JOINT LeftFoot
      {
        OFFSET 40.6238 0 0
        CHANNELS 3 Zrotation Xrotation Yrotation
        JOINT LeftToeBase
        {
          OFFSET 12.7242 0 0
          CHANNELS 3 Zrotation Xrotation Yrotation
          End Site
          {
            OFFSET 0 0 0
          }
        }
      }
    }
  }
  JOINT RightUpLeg
  {
    OFFSET -8.2249 1.95398 -2.59336
    CHANNELS 3 Zrotation Xrotation Yrotation
    JOINT RightLeg
    {
      OFFSET 43.5653 0 0
      CHANNELS 3 Zrotation Xrotation Yrotation
      JOINT RightFoot
      {
        OFFSET 40.6238 0 0
        CHANNELS 3 Zrotation Xrotation Yrotation
        JOINT RightToeBase
        {
          OFFSET 12.7242 0 0
          CHANNELS 3 Zrotation Xrotation Yrotation
          End Site
          {
            OFFSET 0 0 0
          }
        }
      }
    }
  }
  JOINT Spine
  {
    OFFSET 0.165834 0.87714 6.61349
    CHANNELS 3 Zrotation Xrotation Yrotation
    JOINT Spine1
    {
      OFFSET 7.38963 1.71661e-005 0
      CHANNELS 3 Zrotation Xrotation Yrotation
      JOINT Spine2
      {
        OFFSET 11.9445 1.14441e-005 0
        CHANNELS 3 Zrotation Xrotation Yrotation
        JOINT Spine3
        {
          OFFSET 14.7254 4.19617e-005 0
          CHANNELS 3 Zrotation Xrotation Yrotation
          JOINT Spine4
          {
            OFFSET 10.9679 0 0
            CHANNELS 3 Zrotation Xrotation Yrotation
            JOINT RightShoulder
            {
              OFFSET 2.46616 -1.6653 3.69651
              CHANNELS 3 Zrotation Xrotation Yrotation
              JOINT RightArm
              {
                OFFSET 13.0012 0 0
                CHANNELS 3 Zrotation Xrotation Yrotation
                JOINT RightForeArm
                {
                  OFFSET 28.7848 1.52588e-005 0
                  CHANNELS 3 Zrotation Xrotation Yrotation
                  JOINT RightHand
                  {
                    OFFSET 26.5688 1.52588e-005 0
                    CHANNELS 3 Zrotation Xrotation Yrotation
                    End Site
                    {
                      OFFSET 0 0 0
                    }
                  }
                }
              }
            }
            JOINT LeftShoulder
            {
              OFFSET 2.38034 -1.29275 -3.7523
              CHANNELS 3 Zrotation Xrotation Yrotation
              JOINT LeftArm
              {
                OFFSET 16.3182 6.10351e-005 0
                CHANNELS 3 Zrotation Xrotation Yrotation
                JOINT LeftForeArm
                {
                  OFFSET 27.0901 0 0
                  CHANNELS 3 Zrotation Xrotation Yrotation
                  JOINT LeftHand
                  {
                    OFFSET 24.5451 1.52588e-005 0
                    CHANNELS 3 Zrotation Xrotation Yrotation
                    End Site
                    {
                      OFFSET 0 0 0
                    }
                  }
                }
              }
            }
            JOINT Neck
            {
              OFFSET 5.0226 -0.0266342 0
              CHANNELS 3 Zrotation Xrotation Yrotation
              JOINT Head
              {
                OFFSET 6.69364 2.86102e-005 0
                CHANNELS 3 Zrotation Xrotation Yrotation
                End Site
                {
                  OFFSET 0 0 0
                }
              }
            }
          }
        }
      }
    }
  }
}
MOTION
Frames:	7
Frame Time:	0.0416667
36.0708 96.9519 -310.47 -147.398 -84.0421 -144.217 -171.407 -16.5028 90.4284 -20.5535 12.06 -0.26915 85.7951 15.6658 -0.727247 25.0866 -4.32691 8.36178 178.091 19.7482 97.9832 -6.22781 -17.9975 2.96936 50.401 5.78928 -2.53702 60.9038 -12.695 -9.64028 -0.635865 7.98229 -90.2336 10.9077 -1.37395 -0.334959 -0.762512 -1.38736 -0.274162 -23.3021 -1.20976 -0.732453 -3.28944 -1.20976 -0.732457 86.5584 -35.8803 -110.922 39.0912 -5.35157 5.35817 -6.07086 -25.9864 -27.5681 -12.6315 -1.76002 3.37159 -91.2945 -50.6852 76.957 -18.1632 1.79069 -33.7918 12.5172 17.7454 -24.0401 4.93854 -0.482 -10.4918 8.90882 0.132525 -13.0055 -0.303936 2.99896 3.84911 
35.8738 97.4852 -299.941 -159.878 -83.9394 -155.227 -169.618 -20.7653 93.2759 -21.6274 13.9511 0.673088 74.8516 10.4738 0.336762 33.6872 0.54223 11.1978 179.22 21.2667 100.056 -23.3022 -9.55468 1.3405 58.5694 1.82143 -1.11091 22.9614 0.487396 10.4953 -0.750726 7.87648 -90.6022 11.1115 -1.77381 -1.02687 -0.558634 -1.81729 -0.947805 -23.097 -1.38322 -1.51252 -3.0843 -1.38322 -1.51252 87.3952 -35.0145 -109.756 40.1254 -4.8551 5.39024 6.85941 -25.5238 -4.59713 -20.0192 -0.772415 -8.68133 -91.537 -53.0646 77.1497 -19.143 5.81642 -29.543 8.45869 20.2662 -17.4079 2.75696 -0.300774 -9.36179 9.48928 0.817231 -9.24277 -1.64191 2.85196 2.47809 
35.6513 98.1574 -290.043 -169.717 -82.0147 -163.921 -167.868 -8.57763 98.9857 -47.5189 21.3319 1.69929 58.1235 -1.14501 -1.14949 24.3783 -3.78232 5.66326 178.128 17.2894 101.367 -33.1569 -8.42633 2.19444 65.9623 -2.32211 -1.47252 18.7921 1.56485 8.46449 -0.60537 7.92199 -90.8303 11.018 -1.58987 -1.5011 -0.65279 -1.65438 -1.42969 -23.185 -1.06531 -1.90942 -3.17234 -1.06531 -1.90943 87.7508 -34.1647 -109.438 40.3023 -4.11083 4.63563 5.23191 -26.5447 -7.72576 -19.1463 -0.766348 -8.74594 -91.5993 -52.6733 76.9708 -21.5736 10.0002 -25.3396 -0.551044 26.0798 -2.85286 0.954828 -0.0817363 -3.92883 8.30069 0.532115 -7.44486 -2.59339 2.07595 2.44855 
35.2702 99.6613 -282.366 -177.361 -81.7695 -171.575 -169.575 7.65654 98.6122 -65.3462 18.0814 2.6209 59.3013 -0.0744718 1.50148 11.2601 -11.0017 2.9085 178.217 9.61541 101.089 -29.6311 -9.21077 2.254 68.4523 -4.53971 -2.51388 21.6615 1.0559 7.16328 -0.282205 7.98755 -90.8141 10.8879 -0.938137 -1.53051 -0.783554 -1.00458 -1.48775 -23.3125 -0.434862 -1.74163 -3.29984 -0.434869 -1.74164 87.6921 -33.8141 -109.687 38.5311 -7.03629 -0.719292 3.66168 -24.2008 -10.9151 -24.7234 -0.824202 -7.15414 -91.6215 -54.2837 77.3005 -21.2515 9.32669 -17.0976 -2.40974 26.4604 -0.216277 -0.447739 -0.0718413 -3.33987 8.04501 -0.547344 -6.2263 -2.0564 0.761357 1.77853 
35.2268 101.311 -275.086 -165.685 -81.5418 -163.616 -171.703 17.5227 92.6399 -59.3279 6.27743 1.15859 67.0086 5.29645 2.87668 10.0532 -12.9479 5.48932 177.363 1.55181 97.4326 -24.2592 -12.564 0.739457 70.0581 -5.63957 -2.71488 23.0933 0.595223 7.50925 0.383158 7.96793 -90.2825 10.9395 0.632125 -0.622004 -0.731448 0.604146 -0.649218 -23.2673 0.789841 -0.403256 -3.2546 0.78983 -0.403272 87.3796 -33.2148 -110.513 36.2451 -9.15402 -6.54888 2.39174 -25.3288 -14.2086 -29.2383 -1.43443 -4.43845 -90.6997 -54.2072 78.5974 -20.0407 9.49086 -4.48106 2.06014 19.4207 -10.7925 -0.856824 -0.105211 -5.47937 5.05553 -1.58697 -4.17475 -0.522622 -0.791736 0.146637 
35.753 101.419 -267.539 -146.528 -81.9078 -147.773 -173.819 21.209 88.1641 -35.9217 0.203834 -1.28075 65.1485 3.93202 -0.873907 11.7038 -10.932 3.41065 175.266 -2.4591 93.4046 -23.3534 -18.1416 -0.382981 73.5829 -7.80325 -4.00253 22.4247 0.899428 6.8657 0.980391 7.89288 -89.8923 11.0874 2.00158 0.0218505 -0.581962 2.0006 -0.0663051 -23.1287 1.90243 0.622609 -3.11605 1.90244 0.622622 86.9011 -30.9759 -112.39 32.939 -10.6871 -11.7493 -0.248071 -27.4224 -18.7465 -28.0683 -1.22936 -5.8945 -89.0908 -54.2713 80.9066 -18.4823 9.27483 2.69733 2.90996 13.3494 -15.2005 -1.51437 -0.123896 -8.67611 4.61747 -1.43374 1.57932 -0.738698 -1.72235 -3.03484 
36.3722 99.9219 -258.851 -146.346 -80.6219 -148.256 -176.806 18.3804 86.7044 -10.5858 2.6804 -1.654 62.7697 3.12898 0.13269 13.613 -10.6551 5.50842 173.467 -9.30216 90.3309 -23.924 -19.7454 -0.757923 77.7738 -10.5149 -4.66418 26.3529 -0.128797 6.35702 1.22947 8.08473 -89.9169 10.7063 2.48672 -0.0628636 -0.962243 2.48155 -0.172328 -23.5155 2.39058 0.687843 -3.50284 2.39058 0.687841 86.7686 -29.7557 -113.213 27.3653 -11.2945 -17.0926 -3.18732 -30.9354 -23.156 -29.4976 -1.08274 -7.71556 -89.9438 -57.0268 80.2176 -16.8398 6.77889 6.24589 2.40085 9.38289 -12.0672 -2.16276 -0.0982134 -8.64426 4.37817 -0.944121 6.34945 0.164327 -2.1337 -4.15199 
